<?xml version="1.0" encoding="UTF-8" standalone="no"?>
<svg
   xmlns:dc="http://purl.org/dc/elements/1.1/"
   xmlns:cc="http://creativecommons.org/ns#"
   xmlns:rdf="http://www.w3.org/1999/02/22-rdf-syntax-ns#"
   xmlns:svg="http://www.w3.org/2000/svg"
   xmlns="http://www.w3.org/2000/svg"
   xmlns:sodipodi="http://sodipodi.sourceforge.net/DTD/sodipodi-0.dtd"
   xmlns:inkscape="http://www.inkscape.org/namespaces/inkscape"
   version="1.1"
   x="0px"
   y="0px"
   viewBox="0 0 100 100"
   xml:space="preserve"
   id="svg241"
   sodipodi:docname="noun_non profit organization_3147039.svg"
   width="100"
   height="100"
   inkscape:version="0.92.2 5c3e80d, 2017-08-06"><metadata
     id="metadata247"><rdf:RDF><cc:Work
         rdf:about=""><dc:format>image/svg+xml</dc:format><dc:type
           rdf:resource="http://purl.org/dc/dcmitype/StillImage" /><dc:title></dc:title></cc:Work></rdf:RDF></metadata><defs
     id="defs245" /><sodipodi:namedview
     pagecolor="#ffffff"
     bordercolor="#666666"
     borderopacity="1"
     objecttolerance="10"
     gridtolerance="10"
     guidetolerance="10"
     inkscape:pageopacity="0"
     inkscape:pageshadow="2"
     inkscape:window-width="2566"
     inkscape:window-height="1399"
     id="namedview243"
     showgrid="false"
     inkscape:zoom="3.776"
     inkscape:cx="30.046034"
     inkscape:cy="86.756372"
     inkscape:window-x="0"
     inkscape:window-y="0"
     inkscape:window-maximized="0"
     inkscape:current-layer="svg241" /><g
     id="g256"
     transform="matrix(1.0398241,0,0,1.0398241,-1.0244954,-2.0991302)"><g
       id="g235"><path
         inkscape:connector-curvature="0"
         id="path223"
         d="m 34.8,60.6 c -4.5,-4 -6.1,-5.5 -6.9,-6.2 -0.8,-0.8 -0.8,-0.8 -2.1,-1.8 -1.9,-1.6 -3.6,-2.1 -4.9,-1.9 -1,-6.3 -3.9,-25.3 -4.8,-28 -0.6,-2 -2.4,-3.2 -4.4,-3 -1.9,0.2 -3.9,1.7 -4.1,4.7 -0.3,4 -1,24.1 -1.1,30 C 6.2,61 8,63 9.9,65.2 c 0.2,0.2 0.3,0.4 0.5,0.6 2.2,2.6 7.2,8.1 11,11.7 3.1,3 3.1,3.8 3.2,6 v 0.8 c 0.1,2.9 -0.6,10.5 -0.6,10.6 0,0.4 0.1,0.8 0.4,1.2 0.3,0.3 0.7,0.5 1.1,0.5 0,0 0,0 0,0 l 15.3,-0.4 c 0.8,0 1.5,-0.7 1.5,-1.5 0,-2.4 0,-4.7 0.1,-6.9 0.2,-11.3 0.4,-20.1 -7.6,-27.2 z m 4.5,32.6 -12.2,0.3 c 0.1,-1.6 0.3,-4 0.4,-6.2 l 11.9,-1 c 0,0.5 0,0.9 0,1.4 0,1.7 -0.1,3.6 -0.1,5.5 z m 0.2,-9.9 -11.9,1 c 0,0 0,-0.1 0,-0.1 V 83.5 C 27.6,80.6 27.4,79 23.5,75.4 19.7,71.8 14.8,66.4 12.7,63.9 12.5,63.7 12.3,63.5 12.2,63.3 10.5,61.4 9.3,60 9.5,54.5 c 0.2,-7 0.8,-26.1 1.1,-29.8 0.1,-1.3 0.9,-1.8 1.5,-1.9 0,0 0.1,0 0.1,0 0.3,0 0.9,0.1 1.1,0.9 0.7,2.4 3.7,21.2 4.9,29 -0.7,1.3 -0.5,3.2 0.4,5 2.1,4.1 5.6,9.8 5.8,10.1 0.4,0.7 1.4,0.9 2.1,0.5 0.7,-0.4 0.9,-1.4 0.5,-2.1 0,-0.1 -3.7,-5.9 -5.6,-9.8 -0.6,-1.2 -0.6,-2.1 -0.4,-2.4 0,0 0.1,-0.1 0.1,-0.1 0,0 0,0 0,0 0.3,-0.2 1.3,-0.2 2.9,1.2 1.2,1 1.2,1 2,1.7 0.8,0.7 2.5,2.2 7,6.2 5.8,5.1 6.5,11.7 6.5,20.3 z" /><path
         inkscape:connector-curvature="0"
         id="path225"
         d="m 93.6,54.3 c -0.2,-5.8 -0.8,-25.9 -1.1,-30 -0.2,-2.9 -2.3,-4.4 -4.1,-4.7 -2,-0.2 -3.8,1 -4.4,3 -0.8,2.7 -3.8,21.7 -4.8,28 -1.3,-0.1 -3,0.3 -4.9,1.9 -1.3,1 -1.3,1 -2.1,1.8 -0.8,0.7 -2.5,2.2 -6.9,6.2 -8,7.1 -7.8,15.9 -7.6,27.1 0,2.2 0.1,4.5 0.1,6.9 0,0.8 0.6,1.5 1.5,1.5 l 15.3,0.4 c 0,0 0,0 0,0 0.4,0 0.8,-0.2 1.1,-0.5 0.3,-0.3 0.4,-0.7 0.4,-1.2 0,-0.1 -0.6,-7.7 -0.6,-10.6 v -0.8 c 0,-2.2 0,-3 3.2,-6 3.8,-3.7 8.9,-9.2 11,-11.7 0.2,-0.2 0.3,-0.4 0.5,-0.6 1.8,-2 3.6,-4 3.4,-10.7 z M 60.7,93.2 c 0,-1.9 0,-3.7 -0.1,-5.5 0,-0.5 0,-0.9 0,-1.4 l 11.9,1 c 0.1,2.1 0.3,4.6 0.4,6.2 z m 27.2,-30 c -0.2,0.2 -0.4,0.4 -0.5,0.6 -2.1,2.5 -7.1,7.9 -10.8,11.5 -3.8,3.7 -4,5.2 -4.1,8.1 v 0.7 c 0,0 0,0.1 0,0.1 l -11.9,-1 c -0.1,-8.6 0.7,-15.1 6.6,-20.5 4.5,-4 6.2,-5.5 7,-6.2 0.8,-0.7 0.8,-0.7 2,-1.7 1.6,-1.3 2.6,-1.4 2.9,-1.2 0,0 0,0 0,0 0,0 0,0.1 0.1,0.1 0.2,0.3 0.2,1.2 -0.4,2.4 -2,4 -5.6,9.8 -5.6,9.8 -0.4,0.7 -0.2,1.6 0.5,2.1 0.7,0.4 1.6,0.2 2.1,-0.5 0.2,-0.2 3.7,-6 5.8,-10.1 0.9,-1.9 1.1,-3.7 0.4,-5 1.2,-7.8 4.2,-26.6 4.9,-29 0.3,-0.9 1,-0.9 1.2,-0.9 0.6,0.1 1.4,0.6 1.5,1.9 0.3,3.7 0.9,22.8 1.1,29.8 0,5.7 -1.2,7.1 -2.8,9 z" /><path
         inkscape:connector-curvature="0"
         id="path227"
         d="m 62.1,52.7 c 11.4,-12 11.4,-15.9 11.4,-17.1 0,-8.1 -6.6,-14.7 -14.7,-14.7 -3.2,0 -6.3,1.1 -8.8,3 -2.6,-1.9 -5.6,-3 -8.8,-3 -8.1,0 -14.7,6.6 -14.7,14.7 0,1.3 0,5.2 11.4,17.1 5.5,5.8 11,10.7 11.1,10.7 0.3,0.3 0.6,0.4 1,0.4 0.4,0 0.7,-0.1 1,-0.4 0,-0.1 5.6,-5 11.1,-10.7 z M 50,60.2 C 41.7,52.7 29.5,40.1 29.5,35.5 c 0,-6.4 5.2,-11.7 11.7,-11.7 2.9,0 5.6,1.1 7.8,3.1 0.6,0.5 1.4,0.5 2,0 2.2,-2 5,-3.1 7.8,-3.1 6.4,0 11.7,5.2 11.7,11.7 0,4.7 -12.2,17.2 -20.5,24.7 z" /><path
         inkscape:connector-curvature="0"
         id="path229"
         d="m 42.7,15 c 0.2,0.7 0.8,1.1 1.5,1.1 0.1,0 0.3,0 0.4,0 0.8,-0.2 1.3,-1 1.1,-1.8 L 43.2,4.7 C 43,3.9 42.2,3.4 41.4,3.6 c -0.8,0.2 -1.3,1 -1.1,1.8 z" /><path
         inkscape:connector-curvature="0"
         id="path231"
         d="m 55.5,16.1 c 0.1,0 0.3,0 0.4,0 0.7,0 1.3,-0.4 1.5,-1.1 L 59.9,5.4 C 60.1,4.6 59.6,3.8 58.8,3.6 58,3.4 57.2,3.9 57,4.7 l -2.5,9.6 c -0.3,0.7 0.2,1.5 1,1.8 z" /><path
         inkscape:connector-curvature="0"
         id="path233"
         d="m 50,16.1 c 0.8,0 1.5,-0.7 1.5,-1.5 V 5 C 51.5,4.2 50.8,3.5 50,3.5 49.2,3.5 48.5,4.2 48.5,5 v 9.6 c 0,0.8 0.7,1.5 1.5,1.5 z" /></g></g></svg>